<svg width="132" height="24" viewBox="0 0 132 24" fill="none" xmlns="http://www.w3.org/2000/svg">
<path d="M11.1804 0.984375L14.8605 7.11229L21.8135 8.726L17.135 14.127L17.7521 21.2521L11.1804 18.4623L4.60874 21.2521L5.22583 14.127L0.547241 8.726L7.50026 7.11229L11.1804 0.984375Z" fill="#FFBF00"/>
<path d="M38.5897 0.984375L42.2698 7.11229L49.2228 8.726L44.5443 14.127L45.1612 21.2521L38.5897 18.4623L32.0181 21.2521L32.635 14.127L27.9565 8.726L34.9095 7.11229L38.5897 0.984375Z" fill="#FFBF00"/>
<path d="M65.9995 0.984375L69.6798 7.11229L76.6327 8.726L71.9542 14.127L72.5712 21.2521L65.9995 18.4623L59.4279 21.2521L60.045 14.127L55.3665 8.726L62.3194 7.11229L65.9995 0.984375Z" fill="#FFBF00"/>
<path d="M93.4092 0.984375L97.0893 7.11229L104.042 8.726L99.3638 14.127L99.9809 21.2521L93.4092 18.4623L86.8375 21.2521L87.4546 14.127L82.776 8.726L89.7291 7.11229L93.4092 0.984375Z" fill="#FFBF00"/>
<path d="M120.82 0.984375L124.5 7.11229L131.453 8.726L126.774 14.127L127.391 21.2521L120.82 18.4623L114.248 21.2521L114.865 14.127L110.187 8.726L117.14 7.11229L120.82 0.984375Z" fill="#FFBF00"/>
<path d="M120.74 2.34863L123.777 7.40593L123.941 7.67849L124.251 7.75037L129.992 9.08281L126.128 13.5434L125.92 13.7832L125.948 14.0992L126.457 19.982L121.033 17.6794L120.74 17.555L120.447 17.6794L115.023 19.982L115.533 14.0992L115.56 13.7832L115.352 13.5434L111.489 9.08281L117.23 7.75037L117.539 7.67849L117.703 7.40593L120.74 2.34863Z" fill="white" stroke="#FFBF00" stroke-width="1.5"/>
<path d="M114.323 21.1594L120.894 18.3695V0.891602L117.214 7.01951L110.262 8.63323L114.94 14.0342L114.323 21.1594Z" fill="#FFBF00"/>
</svg>
