<svg width="39" height="39" viewBox="0 0 39 39" fill="none" xmlns="http://www.w3.org/2000/svg">
<path d="M22.7776 8.42369C24.3462 8.72973 25.7877 9.49686 26.9178 10.6269C28.0479 11.757 28.815 13.1985 29.121 14.7671M22.7776 2C26.0365 2.36203 29.0754 3.8214 31.3954 6.13848C33.7154 8.45556 35.1786 11.4926 35.5447 14.751M33.9388 27.5663V32.3841C33.9406 32.8313 33.849 33.274 33.6698 33.6838C33.4906 34.0936 33.2278 34.4615 32.8983 34.7638C32.5687 35.0662 32.1796 35.2964 31.7559 35.4397C31.3323 35.583 30.8833 35.6362 30.4379 35.5959C25.4962 35.059 20.7493 33.3703 16.5788 30.6657C12.6986 28.2001 9.40885 24.9104 6.94322 21.0302C4.22917 16.8407 2.54017 12.0707 2.01303 7.10684C1.9729 6.66275 2.02568 6.21516 2.16801 5.79259C2.31033 5.37001 2.53909 4.9817 2.83971 4.65238C3.14033 4.32305 3.50623 4.05993 3.91411 3.87977C4.32199 3.6996 4.76292 3.60634 5.20882 3.60592H10.0266C10.806 3.59825 11.5615 3.87424 12.1525 4.38244C12.7434 4.89064 13.1294 5.59638 13.2384 6.36811C13.4418 7.90991 13.8189 9.42375 14.3626 10.8808C14.5787 11.4556 14.6254 12.0802 14.4973 12.6808C14.3693 13.2814 14.0717 13.8326 13.6399 14.2693L11.6004 16.3088C13.8865 20.3293 17.2154 23.6582 21.2359 25.9443L23.2755 23.9048C23.7121 23.473 24.2633 23.1755 24.8639 23.0474C25.4645 22.9193 26.0892 22.9661 26.664 23.1821C28.121 23.7258 29.6348 24.1029 31.1766 24.3063C31.9567 24.4163 32.6691 24.8093 33.1784 25.4103C33.6877 26.0114 33.9583 26.7787 33.9388 27.5663Z" stroke="#03A9F4" stroke-width="3.21185" stroke-linecap="round" stroke-linejoin="round"/>
</svg>
