<svg width="52" height="51" viewBox="0 0 52 51" fill="none" xmlns="http://www.w3.org/2000/svg">
<path d="M44.5892 9.71621C43.5126 8.63915 42.2344 7.78475 40.8275 7.20181C39.4207 6.61888 37.9128 6.31885 36.3899 6.31885C34.8671 6.31885 33.3592 6.61888 31.9523 7.20181C30.5455 7.78475 29.2672 8.63915 28.1907 9.71621L25.9565 11.9505L23.7222 9.71621C21.5476 7.54164 18.5983 6.31997 15.523 6.31997C12.4477 6.31997 9.4983 7.54164 7.32373 9.71621C5.14915 11.8908 3.92749 14.8401 3.92749 17.9155C3.92749 20.9908 5.14915 23.9401 7.32373 26.1147L9.55797 28.3489L25.9565 44.7474L42.3549 28.3489L44.5892 26.1147C45.6662 25.0381 46.5206 23.7599 47.1036 22.3531C47.6865 20.9462 47.9865 19.4383 47.9865 17.9155C47.9865 16.3926 47.6865 14.8847 47.1036 13.4778C46.5206 12.071 45.6662 10.7928 44.5892 9.71621V9.71621Z" stroke="#03A9F4" stroke-width="4.21555" stroke-linecap="round" stroke-linejoin="round"/>
</svg>
