<svg width="124" height="32" viewBox="0 0 124 32" fill="none" xmlns="http://www.w3.org/2000/svg">
<path fill-rule="evenodd" clip-rule="evenodd" d="M114.997 28.3086C114.519 29.4505 113.834 30.3525 112.941 31.011C112.048 31.6707 111.061 32 109.982 32C108.465 32 107.094 31.4173 105.869 30.2531L107.457 27.2538C108.184 27.9793 108.938 28.3421 109.717 28.3421C110.496 28.3421 111.129 28.0452 111.617 27.4514C112.104 26.8587 112.35 26.2101 112.35 25.508C112.35 25.1999 110.116 19.1913 105.651 7.48096H109.389L114.343 20.3991L119.297 7.48096H123.036L114.997 28.3086ZM102.142 3.2951C101.395 3.2951 100.813 3.54179 100.398 4.03628C99.9817 4.53077 99.7744 5.19603 99.7744 6.03097V7.48096H104.136V10.4468H99.7744V25.0135H96.2849V10.4468H94.1981V7.48096H96.2849V6.12921C96.2849 4.28408 96.8092 2.81736 97.8588 1.73015C98.9065 0.641834 100.174 0.0982337 101.66 0.0982337C103.145 0.0982337 104.499 0.680899 105.726 1.84512L104.292 4.44816C103.606 3.6802 102.89 3.2951 102.142 3.2951ZM88.7774 4.67922C88.1748 4.67922 87.6557 4.44817 87.2188 3.98717C86.783 3.52617 86.5645 2.97698 86.5645 2.33961C86.5645 1.70224 86.783 1.15306 87.2188 0.692064C87.6557 0.229946 88.1748 0 88.7774 0C89.3788 0 89.8991 0.229946 90.3349 0.692064C90.7706 1.15306 90.9892 1.70224 90.9892 2.33961C90.9892 2.97698 90.7706 3.52617 90.3349 3.98717C89.8991 4.44817 89.3788 4.67922 88.7774 4.67922ZM79.7234 25.0135L74.8007 17.3339L72.2766 20.0363V25.0135H68.7869V0.559229H72.2766V14.9284L79.0069 7.48096H83.4927L77.1992 14.4339L83.9601 25.0135H79.7234ZM60.3629 21.9149C61.1849 21.9149 61.9826 21.6972 62.7562 21.2742L64.9838 23.6316C63.4199 24.7267 61.6988 25.277 59.8173 25.277C57.5116 25.277 55.5278 24.4476 53.8668 22.7889C52.2048 21.1302 51.3743 18.9602 51.3743 16.2802C51.3743 13.6001 52.2417 11.419 53.9755 9.73796C55.7092 8.05692 57.8239 7.21641 60.3154 7.21641C62.0048 7.21641 63.516 7.63723 64.853 8.4744L62.3594 11.112C61.6598 10.8028 60.958 10.6443 60.2531 10.6443C58.799 10.6443 57.538 11.1556 56.468 12.1769C55.398 13.1983 54.864 14.5165 54.864 16.1317C54.864 17.7458 55.3938 19.1143 56.4522 20.235C57.5116 21.3545 58.8149 21.9149 60.3629 21.9149ZM39.8469 25.277C37.3544 25.277 35.2777 24.403 33.6157 22.6572C31.9537 20.9103 31.1232 18.7738 31.1232 16.2467C31.1232 13.7207 31.9537 11.5831 33.6157 9.83731C35.2777 8.09042 37.3544 7.21641 39.8469 7.21641C42.3394 7.21641 44.4161 8.09042 46.0781 9.83731C47.7401 11.5831 48.5706 13.7207 48.5706 16.2467C48.5706 18.7738 47.7401 20.9103 46.0781 22.6572C44.4161 24.403 42.3394 25.277 39.8469 25.277ZM43.6015 12.1111C42.6148 11.0451 41.3633 10.5126 39.8469 10.5126C38.3305 10.5126 37.079 11.0451 36.0935 12.1111C35.1057 13.1771 34.6129 14.5556 34.6129 16.2467C34.6129 17.9389 35.1057 19.3174 36.0935 20.3823C37.079 21.4483 38.3305 21.9807 39.8469 21.9807C41.3633 21.9807 42.6148 21.4483 43.6015 20.3823C44.5871 19.3174 45.0809 17.9389 45.0809 16.2467C45.0809 14.5556 44.5871 13.1771 43.6015 12.1111ZM24.0035 0.559229H27.4933V25.0135H24.0035V0.559229ZM11.3122 21.6492C12.36 21.6492 13.3583 21.4282 14.2732 21.0353L16.8121 23.7221C15.1838 24.6831 13.3097 25.2357 11.3122 25.2357C5.06515 25.2357 0 19.8778 0 13.2697C0 6.66052 5.06515 1.30263 11.3122 1.30263C13.2897 1.30263 15.1469 1.84177 16.7635 2.78499L14.2668 5.42709C13.353 5.03641 12.3579 4.8154 11.3122 4.8154C6.93715 4.8154 3.39049 8.58379 3.39049 13.2329C3.39049 17.8808 6.93715 21.6492 11.3122 21.6492ZM90.4911 25.0135H87.0014V7.48096H90.4911V25.0135Z" fill="#03A9F4"/>
</svg>
